<?xml version="1.0" standalone="no"?>
<!DOCTYPE svg PUBLIC "-//W3C//DTD SVG 20010904//EN"
 "http://www.w3.org/TR/2001/REC-SVG-20010904/DTD/svg10.dtd">
<svg version="1.0" xmlns="http://www.w3.org/2000/svg"
 width="512.000000pt" height="512.000000pt" viewBox="0 0 512.000000 512.000000"
 preserveAspectRatio="xMidYMid meet">
<metadata>
Created by potrace 1.11, written by Peter Selinger 2001-2013
</metadata>
<g transform="translate(0.000000,512.000000) scale(0.100000,-0.100000)"
fill="#000000" stroke="none">
<path d="M3499 5087 c-70 -29 -104 -53 -155 -109 -37 -40 -94 -142 -94 -167 0
-14 -14 -14 -80 4 -71 19 -67 20 -80 -19 -24 -73 -69 -89 -200 -70 -237 35
-545 28 -772 -17 -684 -136 -1276 -587 -1588 -1209 -173 -346 -250 -697 -237
-1080 19 -556 237 -1076 620 -1477 148 -155 406 -359 426 -337 10 11 409 697
417 717 3 9 -41 40 -132 93 -152 88 -211 140 -252 223 -24 50 -27 67 -27 156
0 92 2 105 31 160 48 93 503 866 532 905 53 70 118 114 200 135 124 33 190 17
377 -91 81 -46 149 -84 151 -84 2 0 49 77 104 171 106 178 135 209 194 209 67
0 135 -79 122 -143 -3 -17 -50 -104 -103 -194 -81 -139 -94 -166 -82 -177 8
-7 69 -46 137 -85 139 -81 189 -127 229 -209 25 -51 28 -68 28 -157 0 -93 -2
-104 -31 -160 -86 -164 -530 -905 -562 -939 -101 -105 -241 -141 -379 -97 -32
10 -116 52 -187 95 -70 42 -131 76 -135 76 -10 0 -505 -850 -498 -856 8 -8
232 -104 244 -104 6 0 14 9 18 20 3 10 20 31 36 45 39 32 77 32 194 1 194 -52
381 -76 590 -76 591 0 1136 222 1567 639 368 355 601 811 673 1316 35 245 16
604 -45 840 -61 234 -170 488 -289 673 -56 85 -63 92 -93 92 -41 0 -125 39
-155 71 -53 57 -71 167 -41 239 8 19 30 50 49 68 l34 33 -60 57 c-33 32 -76
71 -96 88 -35 30 -36 32 -47 145 -38 372 -194 594 -425 606 -59 3 -82 -1 -128
-20z m184 -141 c54 -20 76 -42 107 -111 74 -161 110 -351 111 -585 1 -308 -63
-567 -207 -842 -119 -226 -168 -342 -199 -468 -5 -23 -3 -22 27 11 18 20 53
72 77 115 68 121 69 122 111 144 103 52 206 2 249 -122 46 -135 56 -212 55
-443 0 -193 -4 -239 -27 -370 -33 -184 -65 -306 -119 -450 -73 -198 -186 -402
-233 -423 -97 -44 -200 36 -173 135 5 18 29 69 55 114 119 212 196 446 238
728 16 108 21 436 6 459 -5 9 -15 2 -36 -27 -42 -61 -119 -129 -178 -156 -184
-86 -334 62 -298 295 20 130 77 279 191 504 145 287 190 433 209 670 12 148
-13 445 -39 461 -4 2 -25 -24 -47 -58 -115 -181 -348 -433 -540 -585 -208
-165 -505 -344 -733 -443 -52 -23 -154 -70 -226 -105 -498 -241 -789 -598
-839 -1029 -8 -71 -25 -106 -59 -129 -32 -21 -100 -21 -132 0 -60 40 -67 105
-30 284 62 307 235 586 501 809 171 144 278 206 750 431 176 83 271 137 415
234 247 167 461 365 612 568 77 102 106 148 191 299 31 54 45 67 94 85 48 17
68 17 116 0z"/>
</g>
</svg>
