<?xml version="1.0" standalone="no"?>
<!DOCTYPE svg PUBLIC "-//W3C//DTD SVG 20010904//EN"
 "http://www.w3.org/TR/2001/REC-SVG-20010904/DTD/svg10.dtd">
<svg version="1.0" xmlns="http://www.w3.org/2000/svg"
 width="700.000000pt" height="700.000000pt" viewBox="0 0 700.000000 700.000000"
 preserveAspectRatio="xMidYMid meet">
<metadata>
Created by potrace 1.11, written by Peter Selinger 2001-2013
</metadata>
<g transform="translate(0.000000,700.000000) scale(0.100000,-0.100000)"
fill="#000000" stroke="none">
<path d="M1055 6388 c-246 -28 -505 -161 -715 -368 -144 -142 -202 -228 -282
-415 -31 -75 -51 -188 -53 -316 -3 -183 23 -323 97 -512 61 -158 168 -351 281
-507 26 -36 55 -76 64 -89 10 -14 70 -88 133 -165 63 -78 122 -149 130 -160 8
-10 20 -23 25 -30 6 -6 40 -47 75 -91 36 -44 74 -91 86 -105 12 -14 88 -106
168 -205 81 -99 155 -189 164 -200 9 -11 87 -105 172 -210 85 -104 157 -192
160 -195 3 -3 35 -41 70 -85 35 -44 67 -82 70 -85 3 -3 32 -39 65 -80 32 -41
62 -77 65 -80 3 -3 25 -30 50 -60 25 -30 47 -57 50 -60 3 -3 32 -39 65 -80 32
-41 62 -77 65 -80 3 -3 66 -79 140 -170 74 -91 143 -174 152 -185 9 -11 202
-247 429 -525 227 -278 442 -534 478 -570 201 -199 520 -206 732 -15 19 17 68
71 109 120 41 49 85 101 97 115 12 14 85 102 163 195 78 94 151 181 163 195
13 14 54 63 92 110 38 47 72 87 75 90 3 3 61 73 130 155 69 83 127 152 130
155 14 14 49 70 68 110 47 99 63 245 38 347 -4 13 -8 32 -10 43 -7 28 -74 154
-94 176 -10 11 -63 75 -119 144 -99 123 -327 401 -383 470 -16 19 -66 80 -111
135 -45 55 -98 120 -119 145 -21 25 -120 146 -221 270 -101 124 -191 234 -200
245 -88 106 -183 222 -206 253 -15 20 -33 42 -39 47 -6 6 -30 35 -55 65 -24
30 -51 64 -61 75 -9 11 -62 76 -118 145 -56 69 -116 143 -135 165 -18 22 -119
146 -224 275 -106 129 -200 244 -209 255 -9 11 -57 70 -106 130 -49 61 -92
112 -95 115 -3 3 -42 50 -86 105 -225 280 -428 465 -672 611 -242 146 -497
209 -738 182z"/>
<path d="M5457 6395 c-1 -1 -51 -5 -110 -9 -60 -3 -111 -8 -115 -10 -4 -2 -25
-7 -47 -10 -63 -10 -212 -52 -270 -76 -301 -123 -533 -310 -711 -570 -86 -126
-186 -341 -209 -449 -2 -9 -11 -47 -20 -85 -25 -108 -30 -160 -29 -336 0 -248
41 -429 148 -655 45 -94 154 -263 210 -324 82 -89 116 -122 185 -180 188 -160
419 -272 674 -326 210 -45 495 -38 692 18 450 129 782 400 983 802 67 134 111
264 137 407 25 136 28 385 6 508 -17 95 -52 234 -62 245 -5 5 -9 18 -9 28 0
33 -116 262 -179 355 -105 154 -277 322 -426 418 -171 109 -386 192 -590 228
-44 8 -253 24 -258 21z"/>
</g>
</svg>
